<svg width="11" height="12" viewBox="0 0 11 12" fill="none" xmlns="http://www.w3.org/2000/svg">
<path fill-rule="evenodd" clip-rule="evenodd" d="M5.39536 0.628418C3.93006 0.628418 3.74633 0.634629 3.17085 0.660886C2.59658 0.687079 2.20437 0.778293 1.86119 0.911678C1.5064 1.04954 1.20551 1.23402 0.905548 1.53397C0.605605 1.83393 0.42112 2.13482 0.28326 2.48961C0.149875 2.83279 0.0586607 3.225 0.0324681 3.79927C0.00621094 4.37474 0 4.55848 0 6.02378C0 7.48906 0.00621094 7.67279 0.0324681 8.24826C0.0586607 8.82253 0.149875 9.21474 0.28326 9.55793C0.42112 9.91272 0.605605 10.2136 0.905548 10.5136C1.20551 10.8135 1.5064 10.998 1.86119 11.1359C2.20437 11.2692 2.59658 11.3605 3.17085 11.3866C3.74633 11.4129 3.93006 11.4191 5.39536 11.4191C6.86064 11.4191 7.04437 11.4129 7.61984 11.3866C8.19412 11.3605 8.58632 11.2692 8.92951 11.1359C9.2843 10.998 9.58519 10.8135 9.88515 10.5136C10.1851 10.2136 10.3696 9.91272 10.5075 9.55793C10.6408 9.21474 10.732 8.82253 10.7582 8.24826C10.7845 7.67279 10.7907 7.48906 10.7907 6.02378C10.7907 4.55848 10.7845 4.37474 10.7582 3.79927C10.732 3.225 10.6408 2.83279 10.5075 2.48961C10.3696 2.13482 10.1851 1.83393 9.88515 1.53397C9.58519 1.23402 9.2843 1.04954 8.92951 0.911678C8.58632 0.778293 8.19412 0.687079 7.61984 0.660886C7.04437 0.634629 6.86064 0.628418 5.39536 0.628418ZM5.39522 1.60101C6.83583 1.60101 7.00648 1.60651 7.5754 1.63247C8.10144 1.65645 8.38712 1.74435 8.57724 1.81824C8.82908 1.91611 9.00881 2.03303 9.1976 2.22184C9.38641 2.41063 9.50332 2.59036 9.6012 2.8422C9.67509 3.03232 9.76298 3.318 9.78697 3.84404C9.81292 4.41296 9.81843 4.58361 9.81843 6.02423C9.81843 7.46484 9.81292 7.63549 9.78697 8.20441C9.76298 8.73045 9.67509 9.01613 9.6012 9.20624C9.50332 9.45809 9.38641 9.63782 9.1976 9.8266C9.00881 10.0154 8.82908 10.1323 8.57724 10.2302C8.38712 10.3041 8.10144 10.392 7.5754 10.416C7.00656 10.4419 6.83594 10.4474 5.39522 10.4474C3.95449 10.4474 3.78388 10.4419 3.21503 10.416C2.68899 10.392 2.40331 10.3041 2.21319 10.2302C1.96135 10.1323 1.78162 10.0154 1.59283 9.8266C1.40404 9.63782 1.2871 9.45809 1.18923 9.20624C1.11534 9.01613 1.02745 8.73045 1.00346 8.20441C0.977502 7.63549 0.971998 7.46484 0.971998 6.02423C0.971998 4.58361 0.977502 4.41296 1.00346 3.84404C1.02745 3.318 1.11534 3.03232 1.18923 2.8422C1.2871 2.59036 1.40402 2.41063 1.59283 2.22184C1.78162 2.03303 1.96135 1.91611 2.21319 1.81824C2.40331 1.74435 2.68899 1.65645 3.21503 1.63247C3.78395 1.60651 3.9546 1.60101 5.39522 1.60101ZM2.62445 6.02406C2.62445 4.49389 3.86488 3.25346 5.39505 3.25346C6.9252 3.25346 8.16562 4.49389 8.16562 6.02406C8.16562 7.55421 6.9252 8.79463 5.39505 8.79463C3.86488 8.79463 2.62445 7.55421 2.62445 6.02406ZM5.39503 7.82247C4.40175 7.82247 3.59657 7.01728 3.59657 6.02403C3.59657 5.03076 4.40175 4.22557 5.39503 4.22557C6.38828 4.22557 7.19347 5.03076 7.19347 6.02403C7.19347 7.01728 6.38828 7.82247 5.39503 7.82247ZM8.27536 3.7916C8.63294 3.7916 8.92282 3.50175 8.92282 3.14417C8.92282 2.7866 8.63294 2.49672 8.27536 2.49672C7.91781 2.49672 7.62793 2.7866 7.62793 3.14417C7.62793 3.50175 7.91781 3.7916 8.27536 3.7916Z" fill="#737680"/>
</svg>
