<svg width="12" height="12" viewBox="0 0 12 12" fill="none" xmlns="http://www.w3.org/2000/svg">
<mask id="mask0" mask-type="alpha" maskUnits="userSpaceOnUse" x="1" y="0" width="10" height="13">
<path d="M1.5 4.30578C1.5 5.25049 1.88086 6.62789 2.92822 6.93799C2.96484 6.9452 3.01611 6.95962 3.05273 6.95962C3.29443 6.95962 3.43359 6.29616 3.43359 6.10866C3.43359 5.8851 2.85498 5.40914 2.85498 4.47885C2.85498 2.54616 4.34912 1.17597 6.28271 1.17597C7.94531 1.17597 9.17578 2.10626 9.17578 3.81539C9.17578 5.09183 8.65576 7.48606 6.97119 7.48606C6.36328 7.48606 5.84326 7.05337 5.84326 6.43318C5.84326 5.52453 6.48779 4.64472 6.48779 3.70722C6.48779 3.13751 6.1582 2.67597 5.54297 2.67597C4.70801 2.67597 4.19531 3.59905 4.19531 4.32741C4.19531 4.73126 4.24658 5.17837 4.42969 5.54616C4.09277 6.97404 3.4043 9.10145 3.4043 10.5726C3.4043 11.0269 3.47021 11.474 3.51416 11.9284L3.58008 12.0005L3.68262 11.9644C4.91309 10.3058 4.86914 9.98126 5.42578 7.81058C5.72607 8.37308 6.50244 8.67597 7.11768 8.67597C9.71045 8.67597 10.875 6.18799 10.875 3.9452C10.875 1.55818 8.78027 0.000488281 6.48047 0.000488281C3.97559 0.000488281 1.5 1.64472 1.5 4.30578Z" fill="white"/>
</mask>
<g mask="url(#mask0)">
<rect y="0.000488281" width="12" height="12" fill="#A3A5AD"/>
</g>
</svg>
