<svg width="32" height="32" viewBox="0 0 32 32" fill="none" xmlns="http://www.w3.org/2000/svg">
<path fill-rule="evenodd" clip-rule="evenodd" d="M12.996 23.993C11.631 23.993 10.34 23.745 9.103 23.385L4.206 26.82V20.784C1.636 18.592 0 15.482 0 11.996C0 5.371 5.818 0 12.996 0C20.174 0 25.992 5.371 25.992 11.996C25.992 18.621 20.173 23.993 12.996 23.993ZM26.833 25.178V31.97L20.701 27.67C20.013 27.771 19.322 27.865 18.605 27.865C15.836 27.865 13.265 27.087 11.13 25.754C11.2232 25.7579 11.3157 25.7634 11.408 25.7689C11.5772 25.779 11.7459 25.789 11.918 25.789C13.21 25.789 14.46 25.641 15.663 25.388C16.606 25.62 17.58 25.784 18.604 25.784C19.411 25.784 20.196 25.701 20.956 25.555L24.775 27.851V24.769L23.429 24.766C27.254 23.113 29.917 19.592 29.917 15.479C29.917 13.13 29.021 10.991 27.567 9.257C27.244 7.782 26.656 6.389 25.843 5.119C29.525 7.323 31.974 11.138 31.974 15.496C31.977 19.44 29.943 22.913 26.833 25.178ZM1.994 11.982C1.994 6.461 6.92 1.988 12.996 1.988C19.072 1.988 23.998 6.461 23.998 11.982C23.998 17.499 19.072 21.973 12.996 21.973C11.492 21.973 10.061 21.696 8.755 21.199L6.263 22.697V19.831C3.682 18.002 1.994 15.183 1.994 11.982Z" fill="#F0B74D"/>
</svg>
