<svg width="23" height="16" viewBox="0 0 23 16" fill="none" xmlns="http://www.w3.org/2000/svg">
<path fill-rule="evenodd" clip-rule="evenodd" d="M20.1515 0.47208C21.0966 0.731838 21.8409 1.49721 22.0935 2.46917C22.5525 4.23074 22.5525 7.90625 22.5525 7.90625C22.5525 7.90625 22.5525 11.5816 22.0935 13.3433C21.8409 14.3153 21.0966 15.0807 20.1515 15.3405C18.4387 15.8125 11.5702 15.8125 11.5702 15.8125C11.5702 15.8125 4.70164 15.8125 2.98877 15.3405C2.04367 15.0807 1.29937 14.3153 1.04678 13.3433C0.587891 11.5816 0.587891 7.90625 0.587891 7.90625C0.587891 7.90625 0.587891 4.23074 1.04678 2.46917C1.29937 1.49721 2.04367 0.731838 2.98877 0.47208C4.70164 0 11.5702 0 11.5702 0C11.5702 0 18.4387 0 20.1515 0.47208ZM9.51038 4.81216V11.6872L15.0015 8.2498L9.51038 4.81216Z" fill="#A3A5AD"/>
</svg>
