<svg width="12" height="12" viewBox="0 0 12 12" fill="none" xmlns="http://www.w3.org/2000/svg">
<mask id="mask0" mask-type="alpha" maskUnits="userSpaceOnUse" x="0" y="0" width="12" height="13">
<path fill-rule="evenodd" clip-rule="evenodd" d="M6.00001 0.000488281C4.3705 0.000488281 4.16617 0.00739528 3.52621 0.036595C2.88758 0.065723 2.45142 0.16716 2.06977 0.315492C1.67522 0.468803 1.34061 0.673962 1.00703 1.00752C0.673474 1.3411 0.468314 1.67571 0.315004 2.07026C0.166672 2.4519 0.0652347 2.88807 0.0361067 3.5267C0.006907 4.16666 0 4.37099 0 6.0005C0 7.62999 0.006907 7.83432 0.0361067 8.47428C0.0652347 9.11291 0.166672 9.54907 0.315004 9.93071C0.468314 10.3253 0.673474 10.6599 1.00703 10.9935C1.34061 11.327 1.67522 11.5322 2.06977 11.6855C2.45142 11.8338 2.88758 11.9353 3.52621 11.9644C4.16617 11.9936 4.3705 12.0005 6.00001 12.0005C7.6295 12.0005 7.83383 11.9936 8.47379 11.9644C9.11242 11.9353 9.54858 11.8338 9.93023 11.6855C10.3248 11.5322 10.6594 11.327 10.993 10.9935C11.3265 10.6599 11.5317 10.3253 11.685 9.93071C11.8333 9.54907 11.9348 9.11291 11.9639 8.47428C11.9931 7.83432 12 7.62999 12 6.0005C12 4.37099 11.9931 4.16666 11.9639 3.5267C11.9348 2.88807 11.8333 2.4519 11.685 2.07026C11.5317 1.67571 11.3265 1.3411 10.993 1.00752C10.6594 0.673962 10.3248 0.468803 9.93023 0.315492C9.54858 0.16716 9.11242 0.065723 8.47379 0.036595C7.83383 0.00739528 7.6295 0.000488281 6.00001 0.000488281ZM5.99919 1.0818C7.60124 1.0818 7.79101 1.08792 8.42369 1.11679C9.00868 1.14346 9.32638 1.24121 9.5378 1.32338C9.81787 1.43222 10.0177 1.56224 10.2277 1.77221C10.4377 1.98216 10.5677 2.18203 10.6765 2.46209C10.7587 2.67352 10.8564 2.99121 10.8831 3.57621C10.912 4.20888 10.9181 4.39866 10.9181 6.00073C10.9181 7.60279 10.912 7.79256 10.8831 8.42524C10.8564 9.01023 10.7587 9.32793 10.6765 9.53935C10.5677 9.81941 10.4377 10.0193 10.2277 10.2292C10.0177 10.4392 9.81787 10.5692 9.5378 10.6781C9.32638 10.7602 9.00868 10.858 8.42369 10.8847C7.79111 10.9135 7.60136 10.9196 5.99919 10.9196C4.39699 10.9196 4.20727 10.9135 3.57466 10.8847C2.98967 10.858 2.67197 10.7602 2.46055 10.6781C2.18048 10.5692 1.98061 10.4392 1.77066 10.2292C1.56072 10.0193 1.43068 9.81941 1.32183 9.53935C1.23966 9.32793 1.14192 9.01023 1.11524 8.42524C1.08638 7.79256 1.08026 7.60279 1.08026 6.00073C1.08026 4.39866 1.08638 4.20888 1.11524 3.57621C1.14192 2.99121 1.23966 2.67352 1.32183 2.46209C1.43068 2.18203 1.56069 1.98216 1.77066 1.77221C1.98061 1.56224 2.18048 1.43222 2.46055 1.32338C2.67197 1.24121 2.98967 1.14346 3.57466 1.11679C4.20734 1.08792 4.39711 1.0818 5.99919 1.0818ZM2.91903 5.99847C2.91903 4.29682 4.29847 2.91738 6.00012 2.91738C7.70176 2.91738 9.08119 4.29682 9.08119 5.99847C9.08119 7.70011 7.70176 9.07954 6.00012 9.07954C4.29847 9.07954 2.91903 7.70011 2.91903 5.99847ZM6.00037 7.99977C4.89578 7.99977 4.00035 7.10434 4.00035 5.99978C4.00035 4.8952 4.89578 3.99977 6.00037 3.99977C7.10493 3.99977 8.00035 4.8952 8.00035 5.99978C8.00035 7.10434 7.10493 7.99977 6.00037 7.99977ZM9.2033 3.5179C9.60095 3.5179 9.92331 3.19556 9.92331 2.79791C9.92331 2.40026 9.60095 2.0779 9.2033 2.0779C8.80567 2.0779 8.48331 2.40026 8.48331 2.79791C8.48331 3.19556 8.80567 3.5179 9.2033 3.5179Z" fill="white"/>
</mask>
<g mask="url(#mask0)">
<rect y="0.000488281" width="12" height="12" fill="#A3A5AD"/>
</g>
</svg>
