<svg width="17" height="16" viewBox="0 0 17 16" fill="none" xmlns="http://www.w3.org/2000/svg">
<mask id="mask0" mask-type="alpha" maskUnits="userSpaceOnUse" x="0" y="0" width="17" height="16">
<path fill-rule="evenodd" clip-rule="evenodd" d="M8.94026 0C6.77107 0 6.49908 0.00920933 5.64717 0.0481423C4.79703 0.0869797 4.21642 0.222229 3.70838 0.420006C3.18315 0.624419 2.73773 0.897966 2.29367 1.34271C1.84965 1.78748 1.57654 2.23363 1.37245 2.7597C1.175 3.26855 1.03996 3.8501 1.00119 4.70161C0.96232 5.5549 0.953125 5.82733 0.953125 8.00002C0.953125 10.1727 0.96232 10.4451 1.00119 11.2984C1.03996 12.1499 1.175 12.7314 1.37245 13.2403C1.57654 13.7664 1.84965 14.2125 2.29367 14.6573C2.73773 15.102 3.18315 15.3756 3.70838 15.58C4.21642 15.7778 4.79703 15.913 5.64717 15.9519C6.49908 15.9908 6.77107 16 8.94026 16C11.1094 16 11.3814 15.9908 12.2333 15.9519C13.0835 15.913 13.6641 15.7778 14.1721 15.58C14.6973 15.3756 15.1428 15.102 15.5868 14.6573C16.0308 14.2125 16.304 13.7664 16.5081 13.2403C16.7055 12.7314 16.8405 12.1499 16.8793 11.2984C16.9182 10.4451 16.9274 10.1727 16.9274 8.00002C16.9274 5.82733 16.9182 5.5549 16.8793 4.70161C16.8405 3.8501 16.7055 3.26855 16.5081 2.7597C16.304 2.23363 16.0308 1.78748 15.5868 1.34271C15.1428 0.897966 14.6973 0.624419 14.1721 0.420006C13.6641 0.222229 13.0835 0.0869797 12.2333 0.0481423C11.3814 0.00920933 11.1094 0 8.94026 0ZM8.9403 1.44147C11.0729 1.44147 11.3256 1.44963 12.1678 1.48812C12.9465 1.52369 13.3694 1.65401 13.6509 1.76357C14.0237 1.9087 14.2897 2.08205 14.5692 2.36202C14.8487 2.64195 15.0218 2.90844 15.1667 3.28186C15.2761 3.56376 15.4062 3.98735 15.4417 4.76735C15.4801 5.61091 15.4883 5.86395 15.4883 8.00005C15.4883 10.1361 15.4801 10.3892 15.4417 11.2327C15.4062 12.0127 15.2761 12.4363 15.1667 12.7182C15.0218 13.0916 14.8487 13.3581 14.5692 13.6381C14.2897 13.918 14.0237 14.0914 13.6509 14.2365C13.3694 14.3461 12.9465 14.4764 12.1678 14.5119C11.3257 14.5504 11.0731 14.5586 8.9403 14.5586C6.80747 14.5586 6.55491 14.5504 5.7128 14.5119C4.93406 14.4764 4.51115 14.3461 4.2297 14.2365C3.85689 14.0914 3.59082 13.918 3.31134 13.6381C3.03186 13.3581 2.85875 13.0916 2.71386 12.7182C2.60448 12.4363 2.47436 12.0127 2.43885 11.2327C2.40042 10.3892 2.39228 10.1361 2.39228 8.00005C2.39228 5.86395 2.40042 5.61091 2.43885 4.76735C2.47436 3.98735 2.60448 3.56376 2.71386 3.28186C2.85875 2.90844 3.03183 2.64195 3.31134 2.36202C3.59082 2.08205 3.85689 1.9087 4.2297 1.76357C4.51115 1.65401 4.93406 1.52369 5.7128 1.48812C6.55501 1.44963 6.80763 1.44147 8.9403 1.44147ZM4.83856 8.00006C4.83856 5.73119 6.67485 3.89194 8.94007 3.89194C11.2053 3.89194 13.0415 5.73119 13.0415 8.00006C13.0415 10.2689 11.2053 12.1082 8.94007 12.1082C6.67485 12.1082 4.83856 10.2689 4.83856 8.00006ZM8.9401 10.6667C7.46969 10.6667 6.27771 9.47285 6.27771 8.0001C6.27771 6.52732 7.46969 5.33342 8.9401 5.33342C10.4105 5.33342 11.6025 6.52732 11.6025 8.0001C11.6025 9.47285 10.4105 10.6667 8.9401 10.6667ZM13.2037 4.68962C13.733 4.68962 14.1621 4.25983 14.1621 3.72963C14.1621 3.19943 13.733 2.76961 13.2037 2.76961C12.6743 2.76961 12.2452 3.19943 12.2452 3.72963C12.2452 4.25983 12.6743 4.68962 13.2037 4.68962Z" fill="white"/>
</mask>
<g mask="url(#mask0)">
<rect x="0.953125" width="15.9742" height="16" fill="#A3A5AD"/>
</g>
</svg>
