<svg width="12" height="9" viewBox="0 0 12 9" fill="none" xmlns="http://www.w3.org/2000/svg">
<path fill-rule="evenodd" clip-rule="evenodd" d="M10.6882 0.257986C11.2046 0.399673 11.6112 0.81715 11.7492 1.34731C12 2.30816 12 4.31299 12 4.31299C12 4.31299 12 6.31774 11.7492 7.27867C11.6112 7.80883 11.2046 8.2263 10.6882 8.36806C9.75252 8.62549 6 8.62549 6 8.62549C6 8.62549 2.24748 8.62549 1.31168 8.36806C0.795341 8.2263 0.388705 7.80883 0.250705 7.27867C0 6.31774 0 4.31299 0 4.31299C0 4.31299 0 2.30816 0.250705 1.34731C0.388705 0.81715 0.795341 0.399673 1.31168 0.257986C2.24748 0.000488281 6 0.000488281 6 0.000488281C6 0.000488281 9.75252 0.000488281 10.6882 0.257986ZM4.87393 2.6244V6.3744L7.87393 4.49948L4.87393 2.6244Z" fill="#A3A5AD"/>
</svg>
