<svg width="33" height="33" viewBox="0 0 33 33" fill="none" xmlns="http://www.w3.org/2000/svg">
<path fill-rule="evenodd" clip-rule="evenodd" d="M25.2916 1.757C26.5906 0.456 28.0436 0 29.2276 0C30.1766 0 30.9526 0.293 31.3346 0.68C32.2026 1.547 32.5746 4.371 30.2366 6.715L23.6406 13.323C23.7553 15.2977 23.9737 18.9148 24.1536 21.8927C24.311 24.4989 24.4388 26.6155 24.4416 26.713C24.4536 27.014 24.4776 27.654 23.8616 28.403C23.2456 29.152 21.7976 30.692 21.7976 30.692C21.4616 31.028 21.0526 31.215 20.6566 31.215C20.6136 31.215 20.5696 31.213 20.5266 31.207C20.2636 31.181 19.7836 31.039 19.5296 30.392C19.3766 29.997 17.0926 23.808 16.0476 20.932L11.9576 24.871C11.9444 25.4929 11.9469 26.6364 11.9492 27.649C11.9511 28.4715 11.9528 29.2077 11.9456 29.508C11.945 29.5301 11.946 29.5554 11.9471 29.5842C11.957 29.8355 11.9776 30.3586 11.0366 31.461C10.6656 31.821 10.2876 32.005 9.9176 32.005H9.8876C9.5066 31.994 9.1896 31.807 8.9966 31.479C8.94139 31.3866 8.46387 30.6238 7.88652 29.7015C7.08348 28.4187 6.0873 26.8273 5.7656 26.302C3.4586 24.905 0.645596 23.101 0.426596 22.923C0.0615956 22.63 -0.00740435 22.266 0.000595648 22.013C0.00959565 21.767 0.0965956 21.396 0.467596 21.023L0.556596 20.942C1.68464 19.9968 2.17462 20.0042 2.42555 20.0079C2.45046 20.0083 2.47301 20.0086 2.4936 20.008C2.54854 20.006 2.62745 20.006 2.72631 20.006H2.7266C3.05484 20.006 3.59991 20.0136 4.20975 20.022C4.98404 20.0328 5.86275 20.045 6.5346 20.045C6.7776 20.045 6.9946 20.042 7.1686 20.038L11.1066 15.97C8.2236 14.906 1.9816 12.567 1.5886 12.412C0.943596 12.158 0.799596 11.679 0.772596 11.415C0.727596 10.98 0.916596 10.516 1.2896 10.14C1.2896 10.14 2.8346 8.686 3.5756 8.072C4.2066 7.55 4.7616 7.488 5.0826 7.488C5.1406 7.488 5.1926 7.489 5.2346 7.491C5.3535 7.49453 7.82713 7.65646 10.7277 7.84633C13.584 8.03332 16.8543 8.2474 18.6976 8.364L25.2916 1.757ZM29.9036 2.113C29.7846 2.069 29.5546 2.008 29.2276 2.008C28.7236 2.008 27.7256 2.159 26.7106 3.176L20.1166 9.783L19.4766 10.423L18.5736 10.367C16.7656 10.252 13.5876 10.046 10.7716 9.859C9.98842 9.80821 9.19722 9.75671 8.46535 9.70908C6.71894 9.59542 5.31033 9.50375 5.1546 9.496L5.0846 9.494C5.0316 9.494 4.9546 9.537 4.8546 9.619C4.4966 9.915 3.8836 10.472 3.3756 10.94C5.3566 11.686 9.5906 13.27 11.8006 14.084L14.7416 15.168L12.5256 17.389L8.5876 21.458L8.0196 22.027L7.2146 22.047C7.0286 22.05 6.7966 22.052 6.5366 22.052C5.8566 22.052 4.9676 22.041 4.1846 22.03C3.5856 22.02 3.0516 22.014 2.7286 22.014H2.6906C2.6667 21.9986 2.64312 21.9833 2.61985 21.9683C2.606 21.9471 2.59096 21.9287 2.5746 21.939C2.58954 21.9487 2.60462 21.9584 2.61985 21.9683C2.62242 21.9722 2.62495 21.9763 2.62744 21.9803C2.64021 22.0007 2.6519 22.0193 2.6626 22.014H2.6906C3.72518 22.6819 5.33953 23.6988 6.8036 24.584L7.2216 24.837L7.4766 25.254C7.80435 25.7905 8.84139 27.4467 9.64977 28.7377L9.7896 28.961C9.84393 29.0483 9.89646 29.1325 9.94735 29.2141C9.94688 29.2631 9.9463 29.3086 9.9456 29.35C9.94197 29.3577 9.97001 29.3658 10.0004 29.3746C10.0234 29.3813 10.0477 29.3883 10.0608 29.3959C10.0615 29.3971 10.0623 29.3983 10.063 29.3995L10.0696 29.41C10.0725 29.4051 10.0686 29.4004 10.0608 29.3959C10.0239 29.3367 9.98609 29.2762 9.94735 29.2141C9.9501 28.9289 9.94928 28.5215 9.94836 28.0629C9.94808 27.9268 9.9478 27.7862 9.9476 27.643C9.9446 26.625 9.9416 25.471 9.9556 24.828L9.9736 24.022L10.5436 23.453L14.6326 19.513L16.8566 17.284L17.9326 20.245C18.7686 22.545 20.2836 26.656 21.0046 28.602C21.4696 28.096 22.0216 27.484 22.3166 27.126C22.4486 26.966 22.4476 26.932 22.4416 26.791C22.4356 26.6527 22.3682 25.5328 22.2784 24.0416C22.2332 23.2897 22.1822 22.4434 22.1306 21.581C21.9556 18.691 21.7516 15.32 21.6426 13.438L21.5906 12.539L22.2266 11.902L28.8226 5.293C30.2406 3.873 30.0486 2.497 29.9036 2.113Z" fill="#F0B74D"/>
</svg>
