<svg width="82" height="82" viewBox="0 0 82 82" fill="none" xmlns="http://www.w3.org/2000/svg">
<g filter="url(#filter0_d)">
<path d="M41 57C52.598 57 62 47.598 62 36C62 24.402 52.598 15 41 15C29.402 15 20 24.402 20 36C20 47.598 29.402 57 41 57Z" fill="#343538"/>
</g>
<path fill-rule="evenodd" clip-rule="evenodd" d="M42.0084 47.2334H43.7295L51.6103 39.1834L49.8893 37.4254L42.0084 45.4754V47.2334ZM43.8848 48.0002H41.6331C41.4259 48.0002 41.2578 47.8285 41.2578 47.6169V45.3169C41.2578 45.2149 41.2976 45.1175 41.3674 45.0455L49.6235 36.6121C49.7706 36.4626 50.0078 36.4626 50.1549 36.6121L52.4066 38.9121C52.5529 39.0624 52.5529 39.3047 52.4066 39.4549L44.1504 47.8883C44.0799 47.9596 43.9846 48.0002 43.8848 48.0002Z" fill="#FDCD4A"/>
<path fill-rule="evenodd" clip-rule="evenodd" d="M49.8888 41.8676C49.7928 41.8676 49.6967 41.8301 49.6232 41.7557L47.3715 39.4557C47.2251 39.3054 47.2251 39.0632 47.3715 38.9129C47.5186 38.7634 47.7558 38.7634 47.9029 38.9129L50.1545 41.2129C50.3009 41.3632 50.3009 41.6054 50.1545 41.7557C50.081 41.8301 49.9849 41.8676 49.8888 41.8676Z" fill="#FDCD4A"/>
<path fill-rule="evenodd" clip-rule="evenodd" d="M40.1325 45.7H32.2337C31.002 45.7 30 44.6765 30 43.4184V27.2816C30 26.0235 31.002 25 32.2337 25H48.0313C49.263 25 50.265 26.0235 50.265 27.2816V35.35C50.265 35.5616 50.0968 35.7333 49.8897 35.7333C49.6825 35.7333 49.5144 35.5616 49.5144 35.35V27.2816C49.5144 26.4459 48.8494 25.7667 48.0313 25.7667H32.2337C31.4155 25.7667 30.7506 26.4459 30.7506 27.2816V43.4184C30.7506 44.2541 31.4155 44.9333 32.2337 44.9333H40.1325C40.3396 44.9333 40.5078 45.1051 40.5078 45.3167C40.5078 45.5283 40.3396 45.7 40.1325 45.7Z" fill="#FDCD4A"/>
<path fill-rule="evenodd" clip-rule="evenodd" d="M49.8897 28.8331H30.3753C30.1681 28.8331 30 28.6613 30 28.4497C30 28.2381 30.1681 28.0664 30.3753 28.0664H49.8897C50.0968 28.0664 50.265 28.2381 50.265 28.4497C50.265 28.6613 50.0968 28.8331 49.8897 28.8331Z" fill="#FDCD4A"/>
<path fill-rule="evenodd" clip-rule="evenodd" d="M33.0006 26.9185C33.0006 27.1301 32.8324 27.3018 32.6253 27.3018C32.4181 27.3018 32.25 27.1301 32.25 26.9185C32.25 26.7069 32.4181 26.5352 32.6253 26.5352C32.8324 26.5352 33.0006 26.7069 33.0006 26.9185Z" fill="#FDCD4A"/>
<path fill-rule="evenodd" clip-rule="evenodd" d="M35.2545 26.9185C35.2545 27.1301 35.0863 27.3018 34.8792 27.3018C34.672 27.3018 34.5039 27.1301 34.5039 26.9185C34.5039 26.7069 34.672 26.5352 34.8792 26.5352C35.0863 26.5352 35.2545 26.7069 35.2545 26.9185Z" fill="#FDCD4A"/>
<path fill-rule="evenodd" clip-rule="evenodd" d="M37.5045 26.9185C37.5045 27.1301 37.3363 27.3018 37.1292 27.3018C36.922 27.3018 36.7539 27.1301 36.7539 26.9185C36.7539 26.7069 36.922 26.5352 37.1292 26.5352C37.3363 26.5352 37.5045 26.7069 37.5045 26.9185Z" fill="#FDCD4A"/>
<defs>
<filter id="filter0_d" x="0" y="0" width="82" height="82" filterUnits="userSpaceOnUse" color-interpolation-filters="sRGB">
<feFlood flood-opacity="0" result="BackgroundImageFix"/>
<feColorMatrix in="SourceAlpha" type="matrix" values="0 0 0 0 0 0 0 0 0 0 0 0 0 0 0 0 0 0 127 0"/>
<feOffset dy="5"/>
<feGaussianBlur stdDeviation="10"/>
<feColorMatrix type="matrix" values="0 0 0 0 0.227451 0 0 0 0 0.235294 0 0 0 0 0.266667 0 0 0 0.06 0"/>
<feBlend mode="normal" in2="BackgroundImageFix" result="effect1_dropShadow"/>
<feBlend mode="normal" in="SourceGraphic" in2="effect1_dropShadow" result="shape"/>
</filter>
</defs>
</svg>
