<svg width="15" height="15" viewBox="0 0 15 15" fill="none" xmlns="http://www.w3.org/2000/svg">
<circle cx="7.5" cy="7.5" r="7.3125" fill="#3A3C44" stroke="#3A3C44" stroke-width="0.375"/>
<path d="M5.62229 9.62762C5.67039 9.67572 5.74836 9.67572 5.79646 9.62762L7.43359 7.99049L9.07073 9.62762C9.11883 9.67572 9.1968 9.67572 9.2449 9.62762L9.62806 9.24446C9.67615 9.19637 9.67615 9.1184 9.62806 9.0703L7.99092 7.43316L9.62806 5.79602C9.67615 5.74793 9.67615 5.66995 9.62806 5.62186L9.2449 5.2387C9.1968 5.19061 9.11883 5.19061 9.07073 5.2387L7.43359 6.87584L5.79646 5.2387C5.74836 5.19061 5.67039 5.19061 5.62229 5.2387L5.23913 5.62186C5.19104 5.66995 5.19104 5.74793 5.23913 5.79602L6.87627 7.43316L5.23913 9.0703C5.19104 9.1184 5.19104 9.19637 5.23913 9.24446L5.62229 9.62762Z" fill="#FDCD4A" stroke="#FDCD4A" stroke-width="0.246305" stroke-linecap="round" stroke-linejoin="round"/>
</svg>
