<svg width="15" height="15" viewBox="0 0 15 15" fill="none" xmlns="http://www.w3.org/2000/svg">
<g clip-path="url(#clip0)">
<circle cx="7.5" cy="7.5" r="7.5" fill="#A3A5AD"/>
<path d="M8.37 5.594V11.75H6.888V5.594H8.37ZM8.592 3.8C8.592 3.928 8.566 4.048 8.514 4.16C8.462 4.272 8.392 4.37 8.304 4.454C8.22 4.538 8.12 4.606 8.004 4.658C7.888 4.706 7.764 4.73 7.632 4.73C7.504 4.73 7.382 4.706 7.266 4.658C7.154 4.606 7.056 4.538 6.972 4.454C6.888 4.37 6.82 4.272 6.768 4.16C6.72 4.048 6.696 3.928 6.696 3.8C6.696 3.668 6.72 3.544 6.768 3.428C6.82 3.312 6.888 3.212 6.972 3.128C7.056 3.044 7.154 2.978 7.266 2.93C7.382 2.878 7.504 2.852 7.632 2.852C7.764 2.852 7.888 2.878 8.004 2.93C8.12 2.978 8.22 3.044 8.304 3.128C8.392 3.212 8.462 3.312 8.514 3.428C8.566 3.544 8.592 3.668 8.592 3.8Z" fill="white"/>
</g>
<defs>
<clipPath id="clip0">
<path d="M0 0H15V15H0V0Z" fill="white"/>
</clipPath>
</defs>
</svg>
