<svg xmlns="http://www.w3.org/2000/svg" width="29" height="29" fill="none" viewBox="0 0 29 29">
    <rect width="29" height="29" fill="#fff" rx="14.357"/>
    <path fill="#343538" d="M20.98 9.88c-.114-.82-.573-1.237-.945-1.51a1.479 1.479 0 0 0-1.42-.188c-.501.187-.86.562-1.232.936-.43.46-.89.892-1.334 1.338-.444-.287-.688-.259-1.046.087-.215.216-.43.417-.63.633-.216.23-.245.604-.03.835.1.115.244.187.387.288-.157.13-.229.187-.286.244-1.62 1.627-3.254 3.267-4.889 4.894-.372.374-.673.777-.817 1.31-.072.287-.244.56-.401.805-.029.044-.058.073-.086.116-.244.33-.23.777.057 1.065l.029.029c.286.287.717.302 1.046.071h.015c.243-.172.473-.403.745-.446.602-.13 1.075-.431 1.491-.863 1.663-1.612 3.283-3.253 4.917-4.88.072-.071.144-.129.258-.244.072.1.115.187.186.259.316.331.66.317.99 0l.516-.518c.415-.418.53-.619.157-1.123.345-.345.689-.676 1.033-1.022.473-.489 1.032-.906 1.247-1.597.057-.173.072-.346.043-.518zm-4.773 4.26a1660.465 1660.465 0 0 1-5.032 5.038 2.373 2.373 0 0 1-1.104.634c-.33.086-.616.316-.917.474-.029.015-.057.044-.086.058a.217.217 0 0 1-.287-.014c-.072-.087-.086-.202-.014-.288.1-.13.2-.26.287-.389.114-.187.215-.403.258-.619.086-.417.272-.762.559-1.05l5.175-5.196c.416.403.817.82 1.247 1.252 0 0-.043.058-.086.1z"/>
</svg>
