<svg width="16" height="16" viewBox="0 0 16 16" fill="none" xmlns="http://www.w3.org/2000/svg">
<mask id="mask0" mask-type="alpha" maskUnits="userSpaceOnUse" x="0" y="0" width="17" height="16">
<path fill-rule="evenodd" clip-rule="evenodd" d="M2 2H0V0H3C3.55228 0 4 0.447715 4 1V2H15C15.6644 2 16.144 2.63591 15.9615 3.27472L13.9615 10.2747C13.8389 10.704 13.4465 11 13 11H3C2.44772 11 2 10.5523 2 10V2ZM5 14C5 15.1046 4.10457 16 3 16C1.89543 16 1 15.1046 1 14C1 12.8954 1.89543 12 3 12C4.10457 12 5 12.8954 5 14ZM15 14C15 15.1046 14.1046 16 13 16C11.8954 16 11 15.1046 11 14C11 12.8954 11.8954 12 13 12C14.1046 12 15 12.8954 15 14ZM12.2457 9H4V4H13.6743L12.2457 9Z" fill="white"/>
</mask>
<g mask="url(#mask0)">
<rect width="16" height="16" fill="#343538"/>
</g>
</svg>
