<svg width="82" height="82" viewBox="0 0 82 82" fill="none" xmlns="http://www.w3.org/2000/svg">
<g filter="url(#filter0_d)">
<path d="M41 57C52.598 57 62 47.598 62 36C62 24.402 52.598 15 41 15C29.402 15 20 24.402 20 36C20 47.598 29.402 57 41 57Z" fill="white"/>
</g>
<path fill-rule="evenodd" clip-rule="evenodd" d="M34.3654 25.7666C33.5197 25.7666 32.832 26.4566 32.832 27.2999V29.5999C32.832 30.4509 33.5197 31.1332 34.3654 31.1332H46.6319C47.4775 31.1332 48.1652 30.4509 48.1652 29.5999V27.2999C48.1652 26.4566 47.4775 25.7666 46.6319 25.7666H34.3654ZM46.6329 31.8999H34.3664C33.0983 31.8999 32.0664 30.8726 32.0664 29.6V27.3C32.0664 26.035 33.0983 25 34.3664 25H46.6329C47.901 25 48.9329 26.035 48.9329 27.3V29.6C48.9329 30.8726 47.901 31.8999 46.6329 31.8999Z" fill="#343538"/>
<path fill-rule="evenodd" clip-rule="evenodd" d="M51.6179 28.8331H48.5513C48.3397 28.8331 48.168 28.6644 48.168 28.4497C48.168 28.2427 48.3397 28.0664 48.5513 28.0664H51.6179C51.8295 28.0664 52.0013 28.2427 52.0013 28.4497C52.0013 28.6644 51.8295 28.8331 51.6179 28.8331Z" fill="#343538"/>
<path fill-rule="evenodd" clip-rule="evenodd" d="M40.8832 37.9333C40.6716 37.9333 40.4999 37.7646 40.4999 37.55C40.4999 36.7833 40.0023 35.848 39.287 35.733L30.8653 34.583C29.7797 34.399 29 33.4407 29 32.283V30.3664C29 29.1014 30.0319 28.0664 31.3 28.0664H32.45C32.6616 28.0664 32.8333 28.2427 32.8333 28.4497C32.8333 28.6644 32.6616 28.8331 32.45 28.8331H31.3C30.4544 28.8331 29.7667 29.5231 29.7667 30.3664V32.283C29.7667 33.0727 30.265 33.7014 30.9795 33.824L39.4013 34.974C40.5574 35.1657 41.2666 36.4613 41.2666 37.55C41.2666 37.7646 41.0948 37.9333 40.8832 37.9333Z" fill="#343538"/>
<path fill-rule="evenodd" clip-rule="evenodd" d="M40.8815 38.0479C39.8243 38.0479 38.9648 38.7685 38.9648 39.6502V45.6301C38.9648 46.5118 39.8243 47.2324 40.8815 47.2324C41.9387 47.2324 42.7981 46.5118 42.7981 45.6301V39.6502C42.7981 38.7685 41.9387 38.0479 40.8815 38.0479ZM40.8825 47.9991C39.4029 47.9991 38.1992 46.9335 38.1992 45.6302V39.6502C38.1992 38.3469 39.4029 37.2812 40.8825 37.2812C42.3622 37.2812 43.5658 38.3469 43.5658 39.6502V45.6302C43.5658 46.9335 42.3622 47.9991 40.8825 47.9991Z" fill="#343538"/>
<defs>
<filter id="filter0_d" x="0" y="0" width="82" height="82" filterUnits="userSpaceOnUse" color-interpolation-filters="sRGB">
<feFlood flood-opacity="0" result="BackgroundImageFix"/>
<feColorMatrix in="SourceAlpha" type="matrix" values="0 0 0 0 0 0 0 0 0 0 0 0 0 0 0 0 0 0 127 0"/>
<feOffset dy="5"/>
<feGaussianBlur stdDeviation="10"/>
<feColorMatrix type="matrix" values="0 0 0 0 0.227451 0 0 0 0 0.235294 0 0 0 0 0.266667 0 0 0 0.06 0"/>
<feBlend mode="normal" in2="BackgroundImageFix" result="effect1_dropShadow"/>
<feBlend mode="normal" in="SourceGraphic" in2="effect1_dropShadow" result="shape"/>
</filter>
</defs>
</svg>
