<svg width="82" height="82" viewBox="0 0 82 82" fill="none" xmlns="http://www.w3.org/2000/svg">
<g filter="url(#filter0_d)">
<path d="M41 57C52.598 57 62 47.598 62 36C62 24.402 52.598 15 41 15C29.402 15 20 24.402 20 36C20 47.598 29.402 57 41 57Z" fill="white"/>
</g>
<path fill-rule="evenodd" clip-rule="evenodd" d="M50.4667 42.4013H47.0167C46.8051 42.4013 46.6333 42.2296 46.6333 42.018C46.6333 41.8064 46.8051 41.6346 47.0167 41.6346H50.4667C50.8899 41.6346 51.2333 41.2912 51.2333 40.868V34.3513C51.2333 33.2941 50.3739 32.4346 49.3167 32.4346H31.6833C30.6261 32.4346 29.7667 33.2941 29.7667 34.3513V40.868C29.7667 41.2912 30.1101 41.6346 30.5333 41.6346H33.9833C34.1949 41.6346 34.3667 41.8064 34.3667 42.018C34.3667 42.2296 34.1949 42.4013 33.9833 42.4013H30.5333C29.6877 42.4013 29 41.7136 29 40.868V34.3513C29 32.8716 30.2037 31.668 31.6833 31.668H49.3167C50.7963 31.668 52 32.8716 52 34.3513V40.868C52 41.7136 51.3115 42.4013 50.4667 42.4013Z" fill="#343538"/>
<path fill-rule="evenodd" clip-rule="evenodd" d="M34.3633 46.234H46.6299V38.5674H34.3633V46.234ZM47.0143 47.0008H33.981C33.7694 47.0008 33.5977 46.829 33.5977 46.6174V38.1841C33.5977 37.9725 33.7694 37.8008 33.981 37.8008H47.0143C47.2267 37.8008 47.3977 37.9725 47.3977 38.1841V46.6174C47.3977 46.829 47.2267 47.0008 47.0143 47.0008Z" fill="#343538"/>
<path fill-rule="evenodd" clip-rule="evenodd" d="M34.3633 31.6666H46.6299V24.7666H34.3633V31.6666ZM47.0143 32.4333H33.981C33.7694 32.4333 33.5977 32.2616 33.5977 32.05V24.3833C33.5977 24.1717 33.7694 24 33.981 24H47.0143C47.2267 24 47.3977 24.1717 47.3977 24.3833V32.05C47.3977 32.2616 47.2267 32.4333 47.0143 32.4333Z" fill="#343538"/>
<path fill-rule="evenodd" clip-rule="evenodd" d="M44.7151 43.9346H36.2818C36.0702 43.9346 35.8984 43.7629 35.8984 43.5513C35.8984 43.3397 36.0702 43.168 36.2818 43.168H44.7151C44.9267 43.168 45.0984 43.3397 45.0984 43.5513C45.0984 43.7629 44.9267 43.9346 44.7151 43.9346Z" fill="#343538"/>
<path fill-rule="evenodd" clip-rule="evenodd" d="M44.7151 40.8682H36.2818C36.0702 40.8682 35.8984 40.6965 35.8984 40.4849C35.8984 40.2733 36.0702 40.1016 36.2818 40.1016H44.7151C44.9267 40.1016 45.0984 40.2733 45.0984 40.4849C45.0984 40.6965 44.9267 40.8682 44.7151 40.8682Z" fill="#343538"/>
<defs>
<filter id="filter0_d" x="0" y="0" width="82" height="82" filterUnits="userSpaceOnUse" color-interpolation-filters="sRGB">
<feFlood flood-opacity="0" result="BackgroundImageFix"/>
<feColorMatrix in="SourceAlpha" type="matrix" values="0 0 0 0 0 0 0 0 0 0 0 0 0 0 0 0 0 0 127 0"/>
<feOffset dy="5"/>
<feGaussianBlur stdDeviation="10"/>
<feColorMatrix type="matrix" values="0 0 0 0 0.227451 0 0 0 0 0.235294 0 0 0 0 0.266667 0 0 0 0.06 0"/>
<feBlend mode="normal" in2="BackgroundImageFix" result="effect1_dropShadow"/>
<feBlend mode="normal" in="SourceGraphic" in2="effect1_dropShadow" result="shape"/>
</filter>
</defs>
</svg>
