<svg width="17" height="16" viewBox="0 0 17 16" fill="none" xmlns="http://www.w3.org/2000/svg">
<mask id="mask0" mask-type="alpha" maskUnits="userSpaceOnUse" x="2" y="0" width="14" height="16">
<path d="M2.89209 5.74038C2.89209 7 3.39908 8.83654 4.79332 9.25C4.84207 9.25961 4.91032 9.27885 4.95907 9.27885C5.28082 9.27885 5.46606 8.39423 5.46606 8.14423C5.46606 7.84615 4.69582 7.21154 4.69582 5.97115C4.69582 3.39423 6.6848 1.56731 9.25878 1.56731C11.472 1.56731 13.11 2.80769 13.11 5.08654C13.11 6.78846 12.4177 9.98077 10.1753 9.98077C9.36603 9.98077 8.67378 9.40385 8.67378 8.57692C8.67378 7.36538 9.53177 6.19231 9.53177 4.94231C9.53177 4.18269 9.09303 3.56731 8.27404 3.56731C7.16255 3.56731 6.48005 4.79808 6.48005 5.76923C6.48005 6.30769 6.5483 6.90385 6.79205 7.39423C6.34356 9.29808 5.42707 12.1346 5.42707 14.0962C5.42707 14.7019 5.51481 15.2981 5.57331 15.9038L5.66106 16L5.79756 15.9519C7.43555 13.7404 7.37705 13.3077 8.11804 10.4135C8.51778 11.1635 9.55127 11.5673 10.3703 11.5673C13.8217 11.5673 15.372 8.25 15.372 5.25962C15.372 2.07692 12.5835 0 9.52202 0C6.18756 0 2.89209 2.19231 2.89209 5.74038Z" fill="white"/>
</mask>
<g mask="url(#mask0)">
<rect x="0.895508" width="15.9742" height="16" fill="#A3A5AD"/>
</g>
</svg>
