<svg width="34" height="36" viewBox="0 0 34 36" fill="none" xmlns="http://www.w3.org/2000/svg">
<path d="M6.13436 33.4053L12.8958 31.5935C7.71869 30.1495 3.10738 25.9721 1.54497 20.1411C-0.743082 11.602 4.32376 2.83213 12.8587 0.545201C21.3946 -1.74198 30.1665 3.31978 32.4546 11.8589C34.5631 19.728 30.4002 27.7952 23.0727 30.9372L22.5551 29.0053C28.7913 26.0987 32.3436 19.172 30.5227 12.3765C28.5206 4.90427 20.8446 0.474958 13.3763 2.47705C5.9085 4.47708 1.47463 12.1512 3.47682 19.6235C4.91686 24.9978 9.3218 28.7565 14.5689 30.11L12.4983 22.3826C12.3521 21.8445 12.6682 21.2972 13.2054 21.1578C13.7365 21.011 14.2859 21.3263 14.4302 21.8649L16.5007 29.5923L17.0184 31.5242C17.102 31.9638 17.0652 31.9695 17.0184 31.5242C16.9966 32.1307 16.9194 32.2714 17.2772 32.4901C16.7896 32.4283 16.7656 32.4585 16.3113 32.7489C16.6464 32.5701 16.5419 32.6323 16.3113 32.7489C16.3822 32.6968 16.3567 32.7368 16.3113 32.7489C16.2852 32.7559 16.2593 32.7483 16.3113 32.7489L6.652 35.3371C6.1195 35.4632 5.57113 35.1476 5.42726 34.63C5.28449 34.0779 5.60062 33.5306 6.13436 33.4053Z" fill="#F0B74D"/>
</svg>
